<svg viewBox="0 0 400 300" xmlns="http://www.w3.org/2000/svg"><rect fill="#fff" height="143.26" rx="7" width="223.73" x="88.14" y="63.04"/><path d="m304.86 206.8h-209.72a7.5 7.5 0 0 1 -7.5-7.5v-129.3a7.51 7.51 0 0 1 7.5-7.5h209.72a7.51 7.51 0 0 1 7.5 7.5v129.3a7.5 7.5 0 0 1 -7.5 7.5zm-209.72-143.26a6.51 6.51 0 0 0 -6.5 6.5v129.26a6.51 6.51 0 0 0 6.5 6.5h209.72a6.51 6.51 0 0 0 6.5-6.5v-129.3a6.51 6.51 0 0 0 -6.5-6.5z" fill="#231f20"/><path d="m311.86 184.14h-223.72a.5.5 0 0 1 -.5-.5.5.5 0 0 1 .5-.5h223.72a.5.5 0 0 1 .5.5.5.5 0 0 1 -.5.5z" fill="#231f20"/><path d="m228.59 233.99h-57.18l10.54-27.69h36.1z" fill="#fff"/><path d="m228.6 234.49h-57.2a.52.52 0 0 1 -.41-.21.5.5 0 0 1 -.05-.46l10.54-27.7a.51.51 0 0 1 .47-.32h36.1a.51.51 0 0 1 .47.32l10.54 27.7a.5.5 0 0 1 -.05.46.52.52 0 0 1 -.41.21zm-56.47-1h55.74l-10.16-26.69h-35.42z" fill="#231f20"/><rect fill="#fff" height="7.47" rx="3.35" width="77.31" x="161.34" y="232.37"/><path d="m235.3 240.34h-70.6a3.86 3.86 0 0 1 -3.86-3.85v-.77a3.86 3.86 0 0 1 3.86-3.85h70.6a3.86 3.86 0 0 1 3.86 3.85v.77a3.86 3.86 0 0 1 -3.86 3.85zm-70.6-7.47a2.86 2.86 0 0 0 -2.86 2.85v.77a2.86 2.86 0 0 0 2.86 2.85h70.6a2.86 2.86 0 0 0 2.86-2.85v-.77a2.86 2.86 0 0 0 -2.86-2.85z" fill="#231f20"/><path d="m96.12 69.79h207.75v105.08h-207.75z" fill="#68e1fd"/><path d="m96.12 69.79h207.75v105.08h-207.75z" fill="#231f20"/><path d="m96.12 69.79h105.08v105.08h-105.08z" fill="#68e1fd"/><path d="m176.73 218.95 42.58-8.27-1.66-4.38h-36.1z" fill="#231f20"/><path d="m176.73 219.45a.49.49 0 0 1 -.38-.18.51.51 0 0 1 -.09-.5l4.82-12.65a.5.5 0 0 1 .47-.32h36.1a.5.5 0 0 1 .46.32l1.67 4.38a.5.5 0 0 1 -.37.67l-42.58 8.27zm5.16-12.65-4.37 11.49 41.11-8-1.33-3.5z" fill="#231f20"/><path d="m222 85.12h-12.66a.5.5 0 0 1 0-1h12.66a.5.5 0 0 1 0 1z" fill="#68e1fd"/><path d="m253.75 85.12h-25.16a.5.5 0 0 1 0-1h25.16a.5.5 0 0 1 0 1z" fill="#fff"/><path d="m261.32 94.86h-25.16a.5.5 0 0 1 0-1h25.16a.5.5 0 0 1 0 1z" fill="#fff"/><path d="m224.91 94.86h-12.61a.5.5 0 0 1 0-1h12.61a.5.5 0 0 1 0 1z" fill="#68e1fd"/><path d="m225.39 104.6h-10.13a.5.5 0 0 1 -.5-.5.5.5 0 0 1 .5-.5h10.13a.51.51 0 0 1 .5.5.5.5 0 0 1 -.5.5z" fill="#68e1fd"/><path d="m265.82 104.6h-31.49a.5.5 0 0 1 -.5-.5.5.5 0 0 1 .5-.5h31.49a.5.5 0 0 1 .5.5.5.5 0 0 1 -.5.5z" fill="#fff"/><path d="m230.83 114.35h-12.61a.5.5 0 0 1 -.5-.5.5.5 0 0 1 .5-.5h12.61a.5.5 0 0 1 .5.5.51.51 0 0 1 -.5.5z" fill="#68e1fd"/><path d="m272.33 114.35h-37.44a.5.5 0 0 1 -.5-.5.5.5 0 0 1 .5-.5h37.44a.5.5 0 0 1 .5.5.5.5 0 0 1 -.5.5z" fill="#fff"/><path d="m227.48 124.09h-12.61a.5.5 0 0 1 0-1h12.61a.5.5 0 0 1 0 1z" fill="#68e1fd"/><path d="m252.62 124.09h-20.31a.5.5 0 0 1 0-1h20.31a.5.5 0 0 1 0 1z" fill="#fff"/><path d="m280.68 124.09h-20.31a.5.5 0 0 1 0-1h20.31a.5.5 0 0 1 0 1z" fill="#68e1fd"/><path d="m219.22 133.83h-4.35a.5.5 0 0 1 -.5-.5.51.51 0 0 1 .5-.5h4.35a.51.51 0 0 1 .5.5.5.5 0 0 1 -.5.5z" fill="#68e1fd"/><path d="m252.62 133.83h-26a.5.5 0 0 1 -.5-.5.51.51 0 0 1 .5-.5h26a.51.51 0 0 1 .5.5.5.5 0 0 1 -.5.5z" fill="#fff"/><path d="m262.86 133.83h-7.25a.5.5 0 0 1 -.5-.5.5.5 0 0 1 .5-.5h7.25a.5.5 0 0 1 .5.5.5.5 0 0 1 -.5.5z" fill="#68e1fd"/><path d="m221.7 143.58h-6.83a.51.51 0 0 1 -.5-.5.5.5 0 0 1 .5-.5h6.83a.5.5 0 0 1 .5.5.51.51 0 0 1 -.5.5z" fill="#68e1fd"/><path d="m259 143.58h-30.88a.51.51 0 0 1 -.5-.5.5.5 0 0 1 .5-.5h30.88a.5.5 0 0 1 .5.5.5.5 0 0 1 -.5.5z" fill="#fff"/><path d="m274.64 143.58h-12.64a.5.5 0 0 1 -.5-.5.5.5 0 0 1 .5-.5h12.61a.5.5 0 0 1 .5.5.5.5 0 0 1 -.47.5z" fill="#68e1fd"/><path d="m218.6 153.32h-6.69a.5.5 0 0 1 0-1h6.69a.5.5 0 0 1 0 1z" fill="#68e1fd"/><path d="m255.61 153.32h-29.22a.5.5 0 0 1 0-1h29.22a.5.5 0 0 1 0 1z" fill="#fff"/><path d="m224.52 163.06h-12.61a.5.5 0 0 1 -.5-.5.51.51 0 0 1 .5-.5h12.61a.5.5 0 0 1 .5.5.5.5 0 0 1 -.5.5z" fill="#68e1fd"/><path d="m294.47 114.35h-17.05a.51.51 0 0 1 -.5-.5.5.5 0 0 1 .5-.5h17.05a.5.5 0 0 1 .5.5.5.5 0 0 1 -.5.5z" fill="#68e1fd"/><path d="m269 85.17c-5.7 0-8.65 0-8.8-.07a.5.5 0 0 1 .23-1c.94.08 20.83 0 28.44 0a.5.5 0 0 1 0 1c-8.47.05-15.11.07-19.87.07z" fill="#68e1fd"/><path d="m271.74 153.32h-12.74a.5.5 0 0 1 0-1h12.76a.5.5 0 0 1 0 1z" fill="#68e1fd"/><path d="m242.46 163.06h-9.38a.5.5 0 0 1 -.5-.5.51.51 0 0 1 .5-.5h9.38a.5.5 0 0 1 .5.5.5.5 0 0 1 -.5.5z" fill="#fff"/><path d="m268.33 163.06h-22.33a.5.5 0 0 1 -.5-.5.51.51 0 0 1 .5-.5h22.3a.5.5 0 0 1 .5.5.5.5 0 0 1 -.47.5z" fill="#68e1fd"/><path d="m230.65 80.9h-134.53a.51.51 0 0 1 -.5-.5.5.5 0 0 1 .5-.5h134.53a.5.5 0 0 1 .5.5.5.5 0 0 1 -.5.5z" fill="#231f20"/><circle cx="104.79" cy="75.05" fill="#fff" r="2.25"/><circle cx="113.43" cy="75.05" fill="#fff" r="2.25"/><circle cx="122.06" cy="75.05" fill="#fff" r="2.25"/><path d="m105.38 86.83h86.26v35.5h-86.26z" fill="#fff"/><path d="m105.38 122.83a.5.5 0 0 1 -.38-.83l31.52-28.29a.49.49 0 0 1 .67 0l26.5 24.42a.51.51 0 0 1 0 .71.5.5 0 0 1 -.71 0l-26.09-24.12-31.18 28a.46.46 0 0 1 -.33.11z" fill="#68e1fd"/><path d="m158.52 114.48a.46.46 0 0 1 -.36-.16.49.49 0 0 1 0-.7l16.94-15.78a.5.5 0 0 1 .69 0l16.21 15.78a.51.51 0 0 1 0 .71.5.5 0 0 1 -.71 0l-15.83-15.44-16.6 15.46a.48.48 0 0 1 -.34.13z" fill="#68e1fd"/><path d="m160.14 102.07a4.3 4.3 0 1 1 3.75-4.26 4 4 0 0 1 -3.75 4.26zm0-7.53a3.31 3.31 0 1 0 2.75 3.27 3.05 3.05 0 0 0 -2.75-3.27z" fill="#68e1fd"/><g fill="#fff"><path d="m191 129.7h-85.62a.5.5 0 0 1 0-1h85.62a.5.5 0 1 1 0 1z"/><path d="m191 136.7h-85.62a.5.5 0 0 1 -.5-.5.5.5 0 0 1 .5-.5h85.62a.5.5 0 0 1 .5.5.51.51 0 0 1 -.5.5z"/><path d="m179.13 143.69h-73.75a.5.5 0 0 1 -.5-.5.5.5 0 0 1 .5-.5h73.75a.51.51 0 0 1 .5.5.5.5 0 0 1 -.5.5z"/><path d="m129.8 166.35h-24.42a.5.5 0 0 1 -.5-.5v-17a.5.5 0 0 1 .5-.5h24.42a.51.51 0 0 1 .5.5v17a.51.51 0 0 1 -.5.5zm-23.92-1h23.42v-16h-23.42z"/><path d="m160.41 166.35h-24.41a.51.51 0 0 1 -.5-.5v-17a.51.51 0 0 1 .5-.5h24.42a.5.5 0 0 1 .5.5v17a.5.5 0 0 1 -.51.5zm-23.92-1h23.42v-16h-23.42z"/><path d="m191 166.35h-24.39a.5.5 0 0 1 -.5-.5v-17a.5.5 0 0 1 .5-.5h24.39a.51.51 0 0 1 .5.5v17a.51.51 0 0 1 -.5.5zm-23.92-1h23.42v-16h-23.39z"/></g><path d="m325.35 240.34h-250.7a.5.5 0 0 1 0-1h250.7a.5.5 0 0 1 0 1z" fill="#d1d3d4"/><path d="m231.31 141.67h88.83v54.89h-88.83z" fill="#fff"/><path d="m320.14 197.07h-88.83a.51.51 0 0 1 -.5-.5v-54.9a.51.51 0 0 1 .5-.5h88.83a.51.51 0 0 1 .5.5v54.9a.51.51 0 0 1 -.5.5zm-88.33-1h87.83v-53.9h-87.83z" fill="#d1d3d4"/><path d="m320.14 151.8h-88.26a.5.5 0 0 1 0-1h88.26a.5.5 0 0 1 0 1z" fill="#d1d3d4"/><path d="m244.46 170.27v-2.27l7.71-5.41 1.51 2.87-5.51 3.71 5.51 3.71-1.51 2.88z" fill="#68e1fd"/><path d="m255 169.12c0-5.07 3.09-8.62 7.42-8.62a6.62 6.62 0 0 1 6.64 5.68l-3.27 1c-.46-1.94-1.63-3.08-3.37-3.08-2.34 0-3.89 2-3.89 5s1.55 5 3.89 5c1.76 0 3-1.2 3.44-3.41l3.32.95c-.62 3.86-3.32 6.1-6.76 6.1-4.34 0-7.42-3.55-7.42-8.62z" fill="#68e1fd"/><path d="m269.69 171.81 3.35-.7c.44 2.28 1.57 3.24 3.73 3.24 1.64 0 2.61-.58 2.61-1.59s-.69-1.47-4.08-2.35-5.13-2.39-5.13-4.93c0-2.9 2.29-4.95 5.8-4.95a6.28 6.28 0 0 1 6.49 5l-3.34.87a3.06 3.06 0 0 0 -3.15-2.48c-1.38 0-2.28.61-2.28 1.52 0 .75.66 1.12 3.87 2 3.53 1 5.35 2.48 5.35 5.28 0 3.08-2.42 5.07-6.16 5.07-3.99-.05-6.55-2.2-7.06-5.98z" fill="#68e1fd"/><path d="m283.43 171.81 3.35-.7c.44 2.28 1.57 3.24 3.73 3.24 1.65 0 2.62-.58 2.62-1.59s-.7-1.47-4.09-2.35-5.13-2.39-5.13-4.93c0-2.9 2.3-4.95 5.81-4.95a6.26 6.26 0 0 1 6.48 5l-3.33.87a3.07 3.07 0 0 0 -3.15-2.48c-1.39 0-2.28.61-2.28 1.52 0 .75.65 1.12 3.86 2 3.53 1 5.36 2.48 5.36 5.28 0 3.08-2.42 5.07-6.17 5.07-3.98-.05-6.49-2.2-7.06-5.98z" fill="#68e1fd"/><path d="m297.77 172.83 5.51-3.71-5.51-3.71 1.51-2.87 7.72 5.46v2.32l-7.71 5.44z" fill="#68e1fd"/><path d="m80.03 114.31h33.35v29.77h-33.35z" fill="#fff"/><path d="m113.38 144.59h-33.38a.5.5 0 0 1 -.5-.5v-29.78a.5.5 0 0 1 .5-.5h33.35a.51.51 0 0 1 .5.5v29.78a.51.51 0 0 1 -.47.5zm-32.85-1h32.35v-28.78h-32.35z" fill="#d1d3d4"/><path d="m113.38 118.82h-33.38a.5.5 0 0 1 -.5-.5.5.5 0 0 1 .5-.5h33.35a.5.5 0 0 1 .5.5.51.51 0 0 1 -.47.5z" fill="#d1d3d4"/><path d="m84.75 131.22v-1.28l5.94-3.57 1 1.62-4.46 2.59 4.46 2.61-1 1.61z" fill="#68e1fd"/><path d="m92.52 136.17 7-12 1.33.84-7 12z" fill="#68e1fd"/><path d="m101.7 133.19 4.46-2.61-4.46-2.58 1-1.62 5.94 3.57v1.28l-5.94 3.58z" fill="#68e1fd"/></svg>